<svg id="Layer_1" data-name="Layer 1" xmlns="http://www.w3.org/2000/svg" viewBox="0 0 98.04 68.76"><defs><style>.cls-1{fill:#3a4245;}.cls-2{fill:#767a7d;}.cls-3{fill:#e55555;}.cls-4{fill:#f99b1d;}.cls-5{fill:#9e1300;}</style></defs><path class="cls-1" d="M255.63,62.05a10.59,10.59,0,1,1-10.58-10.58A10.59,10.59,0,0,1,255.63,62.05Z" transform="translate(-166.57 -27.64)"/><path class="cls-2" d="M250.93,56.17a7.84,7.84,0,0,0-11.1,0l11.1,11.1A7.84,7.84,0,0,0,250.93,56.17Z" transform="translate(-166.57 -27.64)"/><path class="cls-3" d="M207.44,31.64a30.35,30.35,0,0,1,23.87,11.59,23.33,23.33,0,0,1,6.45-3.32A34.38,34.38,0,0,0,180,48.1l.39.1A30.36,30.36,0,0,1,207.44,31.64Z" transform="translate(-166.57 -27.64)"/><path class="cls-4" d="M231.31,80.8a30.37,30.37,0,0,1-50.92-5l-.39.1a34.38,34.38,0,0,0,57.76,8.19A23.33,23.33,0,0,1,231.31,80.8Z" transform="translate(-166.57 -27.64)"/><path class="cls-4" d="M245.05,42.46A19.56,19.56,0,1,0,264.6,62,19.56,19.56,0,0,0,245.05,42.46Zm0,29.79A10.24,10.24,0,1,1,255.29,62,10.23,10.23,0,0,1,245.05,72.25Z" transform="translate(-166.57 -27.64)"/><path class="cls-3" d="M187.56,62a10.5,10.5,0,1,1-10.5-10.5A10.5,10.5,0,0,1,187.56,62Z" transform="translate(-166.57 -27.64)"/><path class="cls-5" d="M177.06,54.37V69.66a7.65,7.65,0,1,0,0-15.29Z" transform="translate(-166.57 -27.64)"/></svg>